<?xml version="1.0" encoding="utf-8"?>
<!-- Generator: Adobe Illustrator 23.0.3, SVG Export Plug-In . SVG Version: 6.00 Build 0)  -->
<svg version="1.1" xmlns="http://www.w3.org/2000/svg" xmlns:xlink="http://www.w3.org/1999/xlink" x="0px" y="0px"
	 viewBox="0 0 316.3 364.3" style="enable-background:new 0 0 316.3 364.3;" xml:space="preserve">
<style type="text/css">
	.st0{fill:#68A7FF;}
	.st1{fill:#4689E9;}
	.st2{fill:#5294F2;}
	.st3{fill:none;stroke:#000000;stroke-width:2;stroke-linejoin:round;stroke-miterlimit:10;}
	.st4{fill:none;stroke:#000000;stroke-miterlimit:10;}
</style>
<g id="Warstwa_1">
	<g>
		<polygon points="313.1,272 158.1,361.5 158.1,182.5 313.1,93 		"/>
		<polygon points="3.1,272 158.1,361.5 158.1,182.5 3.1,93 		"/>
		<polygon points="158.1,182.5 313.1,93 158.1,3.5 94.7,40 3.1,93 		"/>
	</g>
	<polygon class="st0" points="190.4,23.4 90.9,80.8 58.4,62.1 157.9,4.6 	"/>
	<polygon class="st1" points="79.7,85.6 161,40.3 176.2,49.5 95.1,96.6 	"/>
	<polygon class="st2" points="268.4,122.5 159,59.5 158.9,41.5 280.5,111.1 	"/>
	<polygon class="st2" points="167.8,143 58.4,80 58.4,62.1 179.9,131.7 	"/>
	<polygon class="st2" points="96.6,273.4 96.5,147.1 112,138.1 112.4,264.2 	"/>
	<polygon class="st2" points="48.7,297.3 48.6,171 65,162.1 64.6,288.1 	"/>
	<polygon class="st2" points="219.9,324.5 220.3,198.3 204.5,189.3 204.1,315.4 	"/>
	<polygon class="st0" points="312.9,93 157.9,182.5 157.9,235.6 312.9,146.1 	"/>
	<polygon class="st0" points="219.9,325.6 220.1,146.6 266.2,120.1 266,299.1 	"/>
	<polygon class="st0" points="2.9,93 157.9,182.5 157.9,235.6 2.9,146.1 	"/>
	<polygon class="st0" points="48.7,298.6 48.9,119.6 2.9,93 2.7,272 	"/>
	<polygon class="st0" points="157.9,361.5 158.1,182.5 112.1,155.8 111.9,334.8 	"/>
	<polygon class="st0" points="96.6,273.4 96.7,147.1 64.3,128.3 64.1,254.6 	"/>
	<polygon class="st0" points="258.7,124.3 103.6,35 57.5,61.6 212.7,151 	"/>
	<polygon class="st0" points="190.4,163.7 35.4,74.3 2.9,93 157.9,182.5 	"/>
	<polygon class="st0" points="312.9,93 158,3.5 125.5,22.2 280.5,111.7 	"/>
	<g>
		<polygon class="st3" points="312.9,272 157.9,361.5 157.9,182.5 312.9,93 		"/>
		<polygon class="st3" points="2.9,272 157.9,361.5 157.9,182.5 2.9,93 		"/>
		<polygon class="st3" points="157.9,182.5 312.9,93 157.9,3.5 94.6,40 2.9,93 		"/>
	</g>
	<path class="st4" d="M102.2,64.4"/>
	<polygon class="st0" points="125.5,162.5 225.1,105 257.6,123.7 157.9,181.3 	"/>
</g>
<g id="Warstwa_2">
</g>
</svg>
